<svg width="98" height="30" viewBox="0 0 98 30" fill="none" xmlns="http://www.w3.org/2000/svg">
<path d="M31.3327 14.9678L17.5 14.9678L19.3015 11.8153C22.5184 6.21783 28.5018 2.74356 35 2.74356L35 0.427391L19.1728 0.42739C14.0257 0.42739 9.2647 3.38695 7.01286 8.08364L3.66727 15.0322L17.5 15.0322L15.6985 18.1847C12.4816 23.7822 6.49816 27.2564 -1.17273e-06 27.2564L-1.27398e-06 29.5726L15.8272 29.5726C20.9743 29.5726 25.7353 26.6131 27.9871 21.9164L31.3327 14.9678Z" fill="#1A60FE"/>
<path d="M43.2919 22.6853C43.0174 22.6853 42.7086 22.6578 42.3654 22.6029C42.036 22.548 41.7203 22.4794 41.4184 22.3971C41.1301 22.3147 40.9037 22.2255 40.739 22.1294C40.6429 22.0745 40.5674 22.0196 40.5125 21.9647C40.4713 21.8961 40.4507 21.7863 40.4507 21.6353L40.3478 18.4029C40.3478 18.1284 40.437 17.9912 40.6154 17.9912C40.7664 17.9912 40.8693 18.1147 40.9243 18.3618L41.1095 19.1441C41.5762 21.1069 42.4478 22.0882 43.7243 22.0882C44.4105 22.0882 44.9527 21.8618 45.3507 21.4088C45.7625 20.9422 45.9684 20.2902 45.9684 19.4529C45.9684 18.6431 45.7556 17.8882 45.3301 17.1882C44.9184 16.4882 44.2527 15.7951 43.3331 15.1088C42.3174 14.3814 41.5762 13.6814 41.1095 13.0088C40.6429 12.3225 40.4095 11.5951 40.4095 10.8265C40.4095 9.81078 40.7595 9.00098 41.4595 8.39706C42.1733 7.77941 43.0792 7.47059 44.1772 7.47059C44.589 7.47059 44.987 7.51863 45.3713 7.6147C45.7556 7.71078 46.0713 7.84804 46.3184 8.02647C46.4007 8.08137 46.4625 8.14313 46.5037 8.21176C46.5586 8.28039 46.586 8.36961 46.586 8.47941L46.6478 11.5882C46.6478 11.8216 46.5586 11.9382 46.3801 11.9382C46.2566 11.9382 46.1674 11.8422 46.1125 11.65L45.9684 11.1353C45.6664 10.0784 45.3507 9.3098 45.0213 8.82941C44.7056 8.33529 44.2458 8.08823 43.6419 8.08823C43.0517 8.08823 42.5782 8.28039 42.2213 8.6647C41.8782 9.04902 41.7066 9.59117 41.7066 10.2912C41.7066 10.8814 41.8988 11.4441 42.2831 11.9794C42.6674 12.5147 43.3399 13.1667 44.3007 13.9353C45.3301 14.7725 46.0782 15.5824 46.5448 16.3647C47.0252 17.1333 47.2654 17.9569 47.2654 18.8353C47.2654 19.6039 47.0939 20.2765 46.7507 20.8529C46.4076 21.4294 45.9341 21.8824 45.3301 22.2118C44.7399 22.5275 44.0605 22.6853 43.2919 22.6853ZM51.9642 22.6853C51.2642 22.6853 50.6328 22.452 50.0701 21.9853C49.5211 21.5049 49.0819 20.8529 48.7524 20.0294C48.423 19.2059 48.2583 18.2863 48.2583 17.2706C48.2583 16.2549 48.423 15.3422 48.7524 14.5324C49.0819 13.7225 49.5279 13.0774 50.0907 12.5971C50.6534 12.1167 51.2779 11.8765 51.9642 11.8765C52.6642 11.8765 53.2887 12.1167 53.8377 12.5971C54.4005 13.0774 54.8466 13.7225 55.176 14.5324C55.5054 15.3422 55.6701 16.2549 55.6701 17.2706C55.6701 18.2863 55.5054 19.2059 55.176 20.0294C54.8603 20.8529 54.4211 21.5049 53.8583 21.9853C53.2956 22.452 52.6642 22.6853 51.9642 22.6853ZM51.9642 22.1706C53.3917 22.1706 54.1054 20.5373 54.1054 17.2706C54.1054 14.0176 53.3917 12.3912 51.9642 12.3912C50.5368 12.3912 49.823 14.0176 49.823 17.2706C49.823 20.5373 50.5368 22.1706 51.9642 22.1706ZM57.836 21.1206V13.0706C57.836 12.7412 57.6713 12.5765 57.3419 12.5765H56.8684C56.7037 12.5765 56.6213 12.5078 56.6213 12.3706C56.6213 12.2333 56.7037 12.1578 56.8684 12.1441C57.5135 12.0755 57.836 11.7941 57.836 11.3V11.1765C57.836 10.4627 57.939 9.79706 58.1449 9.17941C58.3645 8.56176 58.6733 8.06078 59.0713 7.67647C59.4831 7.29215 59.9841 7.1 60.5743 7.1C61.1233 7.1 61.5831 7.25784 61.9537 7.57353C62.3243 7.88921 62.5096 8.26666 62.5096 8.70588C62.5096 8.96666 62.4409 9.16568 62.3037 9.30294C62.1802 9.42647 62.0086 9.48823 61.789 9.48823C61.5145 9.48823 61.3155 9.39902 61.1919 9.22059C61.0821 9.04215 60.9929 8.84313 60.9243 8.62353C60.8556 8.39019 60.7664 8.18431 60.6566 8.00588C60.5606 7.82745 60.3821 7.73823 60.1213 7.73823C59.8468 7.73823 59.6272 7.89608 59.4625 8.21176C59.3115 8.51372 59.236 9.09019 59.236 9.94117V11.7529C59.236 11.9176 59.3184 12 59.4831 12H61.2537C61.4596 12 61.5625 12.0961 61.5625 12.2882C61.5625 12.4804 61.4596 12.5765 61.2537 12.5765H59.4831C59.3184 12.5765 59.236 12.6588 59.236 12.8235V21.1206C59.236 21.4088 59.2772 21.6078 59.3596 21.7176C59.4556 21.8275 59.6478 21.8961 59.936 21.9235L61.0272 22.0265C61.1782 22.0539 61.2537 22.1294 61.2537 22.2529C61.2537 22.4176 61.1507 22.5 60.9449 22.5H56.6625C56.4566 22.5 56.3537 22.4245 56.3537 22.2735C56.3537 22.1225 56.4429 22.0402 56.6213 22.0265L57.136 21.9853C57.4243 21.9578 57.6096 21.8824 57.6919 21.7588C57.788 21.6216 57.836 21.4088 57.836 21.1206ZM64.5386 22.6853C64.0582 22.6853 63.6602 22.5206 63.3445 22.1912C63.0426 21.848 62.8916 21.2922 62.8916 20.5235V12.8235C62.8916 12.6588 62.8092 12.5765 62.6445 12.5765H62.0475C61.8279 12.5765 61.718 12.4941 61.718 12.3294C61.718 12.2196 61.7798 12.1235 61.9033 12.0412C62.3563 11.7255 62.72 11.3892 62.9945 11.0324C63.269 10.6618 63.5092 10.1608 63.7151 9.52941C63.8112 9.24117 63.9279 9.09706 64.0651 9.09706C64.2161 9.09706 64.2916 9.20686 64.2916 9.42647V11.7118C64.2916 11.9039 64.3877 12 64.5798 12H65.9181C66.1377 12 66.2475 12.0961 66.2475 12.2882C66.2475 12.4804 66.1377 12.5765 65.9181 12.5765H64.5798C64.3877 12.5765 64.2916 12.6725 64.2916 12.8647V20.5441C64.2916 20.8461 64.3396 21.0863 64.4357 21.2647C64.5318 21.4294 64.7102 21.5118 64.971 21.5118C65.2592 21.5118 65.4926 21.3676 65.671 21.0794C65.8631 20.7912 65.9867 20.3245 66.0416 19.6794C66.069 19.4873 66.1582 19.3912 66.3092 19.3912C66.4739 19.3912 66.5563 19.4941 66.5563 19.7C66.5151 20.7569 66.2955 21.5186 65.8975 21.9853C65.5131 22.452 65.0602 22.6853 64.5386 22.6853ZM72.6255 22.6853C71.6098 22.6853 70.7176 22.3696 69.949 21.7382C69.1941 21.1069 68.6039 20.2216 68.1784 19.0824C67.7666 17.9294 67.5608 16.5706 67.5608 15.0059C67.5608 13.4961 67.7872 12.1784 68.2402 11.0529C68.7068 9.91372 69.3245 9.03529 70.0931 8.41765C70.8755 7.78627 71.7402 7.47059 72.6872 7.47059C73.25 7.47059 73.7441 7.52549 74.1696 7.63529C74.5951 7.73137 74.9725 7.86176 75.3019 8.02647C75.4666 8.12255 75.549 8.26666 75.549 8.45882L75.6108 11.5882C75.6108 11.8216 75.5284 11.9382 75.3637 11.9382C75.2127 11.9382 75.1166 11.849 75.0755 11.6706L74.8696 10.9088C74.5814 9.83823 74.2451 9.09706 73.8608 8.68529C73.4902 8.27353 73.0441 8.06764 72.5225 8.06764C71.5617 8.06764 70.7588 8.6647 70.1137 9.85882C69.4823 11.0392 69.1666 12.7549 69.1666 15.0059C69.1666 16.5431 69.3245 17.8402 69.6402 18.8971C69.9696 19.9539 70.3882 20.75 70.8961 21.2853C71.4176 21.8206 71.9666 22.0882 72.5431 22.0882C73.1608 22.0882 73.6549 21.8961 74.0255 21.5118C74.4098 21.1275 74.7323 20.3863 74.9931 19.2882L75.2402 18.2794C75.2814 18.0735 75.3912 17.9843 75.5696 18.0118C75.7206 18.0392 75.7961 18.1559 75.7961 18.3618L75.7137 21.6971C75.7137 21.8892 75.6245 22.0333 75.4461 22.1294C75.1166 22.2941 74.7255 22.4245 74.2725 22.5206C73.8333 22.6304 73.2843 22.6853 72.6255 22.6853ZM79.6969 13.3176C80.2596 12.3569 80.939 11.8765 81.7351 11.8765C82.1881 11.8765 82.5243 12.0137 82.7439 12.2882C82.9636 12.549 83.0734 12.8441 83.0734 13.1735C83.0734 13.4343 83.0047 13.6471 82.8675 13.8118C82.7439 13.9765 82.5449 14.0588 82.2704 14.0588C82.0508 14.0588 81.8861 14.0108 81.7763 13.9147C81.6802 13.8049 81.5979 13.6814 81.5292 13.5441C81.4743 13.4069 81.4057 13.2902 81.3234 13.1941C81.241 13.0843 81.1038 13.0294 80.9116 13.0294C80.6645 13.0294 80.4312 13.1804 80.2116 13.4824C79.992 13.7706 79.8067 14.1618 79.6557 14.6559C79.5185 15.15 79.4498 15.7127 79.4498 16.3441V21.1206C79.4498 21.4088 79.491 21.6147 79.5734 21.7382C79.6694 21.8618 79.8616 21.9373 80.1498 21.9647L80.7057 22.0265C80.8567 22.0539 80.9322 22.1294 80.9322 22.2529C80.9322 22.4176 80.8292 22.5 80.6234 22.5H77.1439C76.9381 22.5 76.8351 22.4245 76.8351 22.2735C76.8351 22.15 76.9243 22.0676 77.1028 22.0265L77.3498 21.9853C77.6381 21.9304 77.8234 21.848 77.9057 21.7382C78.0018 21.6147 78.0498 21.4088 78.0498 21.1206V14.2029C78.0498 13.9559 78.0087 13.7912 77.9263 13.7088C77.8577 13.6127 77.7273 13.551 77.5351 13.5235L77.1028 13.4618C76.9243 13.448 76.8351 13.3725 76.8351 13.2353C76.8351 13.1255 76.9449 13.05 77.1645 13.0088C77.59 12.9402 77.9126 12.8304 78.1322 12.6794C78.3655 12.5284 78.6057 12.3431 78.8528 12.1235C78.9763 12 79.0792 11.9382 79.1616 11.9382C79.2851 11.9382 79.3469 12.0206 79.3469 12.1853V13.2971C79.3469 13.3931 79.3881 13.4549 79.4704 13.4824C79.5528 13.4961 79.6283 13.4412 79.6969 13.3176ZM85.0865 22.6853C84.51 22.6853 84.0365 22.5069 83.6659 22.15C83.2953 21.7794 83.11 21.2922 83.11 20.6882C83.11 20.098 83.2953 19.5422 83.6659 19.0206C84.0365 18.4853 84.5443 18.0049 85.1894 17.5794C85.8345 17.1539 86.5689 16.8108 87.3924 16.55C87.5708 16.4951 87.66 16.3784 87.66 16.2V14.3265C87.66 13.6676 87.5571 13.201 87.3512 12.9265C87.1453 12.6382 86.864 12.4941 86.5071 12.4941C86.164 12.4941 85.8483 12.652 85.56 12.9676C85.2855 13.2696 85.0865 13.7843 84.963 14.5118C84.8943 14.951 84.7434 15.2735 84.51 15.4794C84.2904 15.6716 84.064 15.7676 83.8306 15.7676C83.4463 15.7676 83.2541 15.5755 83.2541 15.1912C83.2541 14.7931 83.364 14.402 83.5836 14.0176C83.8169 13.6196 84.1189 13.2627 84.4894 12.9471C84.86 12.6176 85.2649 12.3569 85.7041 12.1647C86.1434 11.9725 86.5826 11.8765 87.0218 11.8765C88.3806 11.8765 89.06 12.6657 89.06 14.2441V20.5441C89.06 21.1206 89.2041 21.4088 89.4924 21.4088C89.6708 21.4088 89.8355 21.2922 89.9865 21.0588C90.1375 20.8118 90.213 20.4 90.213 19.8235C90.213 19.6039 90.3022 19.4941 90.4806 19.4941C90.6453 19.4941 90.7277 19.6108 90.7277 19.8441C90.7277 20.8461 90.5492 21.5735 90.1924 22.0265C89.8492 22.4657 89.4581 22.6853 89.0189 22.6853C88.6894 22.6853 88.4287 22.5549 88.2365 22.2941C88.0443 22.0196 87.914 21.6971 87.8453 21.3265C87.8316 21.1892 87.7698 21.1206 87.66 21.1206C87.564 21.1069 87.4679 21.1686 87.3718 21.3059C87.0424 21.7588 86.7061 22.102 86.363 22.3353C86.0198 22.5686 85.5943 22.6853 85.0865 22.6853ZM85.6424 21.7382C85.9992 21.7382 86.3287 21.6147 86.6306 21.3676C86.9326 21.1069 87.1796 20.7637 87.3718 20.3382C87.564 19.9127 87.66 19.4324 87.66 18.8971V17.3941C87.66 17.1333 87.5159 17.0578 87.2277 17.1676C86.3904 17.4696 85.7385 17.8882 85.2718 18.4235C84.8189 18.9451 84.5924 19.5765 84.5924 20.3176C84.5924 21.2647 84.9424 21.7382 85.6424 21.7382ZM92.4862 21.1206V13.0706C92.4862 12.7412 92.3215 12.5765 91.9921 12.5765H91.5186C91.3539 12.5765 91.2715 12.5078 91.2715 12.3706C91.2715 12.2333 91.3539 12.1578 91.5186 12.1441C92.1637 12.0755 92.4862 11.7941 92.4862 11.3V11.1765C92.4862 10.4627 92.5891 9.79706 92.795 9.17941C93.0146 8.56176 93.3235 8.06078 93.7215 7.67647C94.1333 7.29215 94.6342 7.1 95.2244 7.1C95.7735 7.1 96.2333 7.25784 96.6039 7.57353C96.9744 7.88921 97.1597 8.26666 97.1597 8.70588C97.1597 8.96666 97.0911 9.16568 96.9539 9.30294C96.8303 9.42647 96.6588 9.48823 96.4391 9.48823C96.1646 9.48823 95.9656 9.39902 95.8421 9.22059C95.7323 9.04215 95.6431 8.84313 95.5744 8.62353C95.5058 8.39019 95.4166 8.18431 95.3068 8.00588C95.2107 7.82745 95.0323 7.73823 94.7715 7.73823C94.497 7.73823 94.2774 7.89608 94.1127 8.21176C93.9617 8.51372 93.8862 9.09019 93.8862 9.94117V11.7529C93.8862 11.9176 93.9686 12 94.1333 12H95.9039C96.1097 12 96.2127 12.0961 96.2127 12.2882C96.2127 12.4804 96.1097 12.5765 95.9039 12.5765H94.1333C93.9686 12.5765 93.8862 12.6588 93.8862 12.8235V21.1206C93.8862 21.4088 93.9274 21.6078 94.0097 21.7176C94.1058 21.8275 94.298 21.8961 94.5862 21.9235L95.6774 22.0265C95.8284 22.0539 95.9039 22.1294 95.9039 22.2529C95.9039 22.4176 95.8009 22.5 95.595 22.5H91.3127C91.1068 22.5 91.0039 22.4245 91.0039 22.2735C91.0039 22.1225 91.0931 22.0402 91.2715 22.0265L91.7862 21.9853C92.0744 21.9578 92.2597 21.8824 92.3421 21.7588C92.4382 21.6216 92.4862 21.4088 92.4862 21.1206Z" fill="#1A60FE"/>
</svg>
